<svg xmlns="http://www.w3.org/2000/svg" id="Layer_1" data-name="Layer 1" viewBox="0 0 455 302" class="mdl-js">
  <defs>
    <style>.cls-1{fill:#fff;}</style>
  </defs>
  <rect class="cls-1" id="id-1" x="425.5" y="0.5" width="29" height="29"/>
  <path d="M886,196v28H858V196h28m1-1H857v30h30V195Z" transform="translate(-432 -195)"/>
  <rect class="cls-1" id="id-2" x="394.5" y="0.5" width="29" height="29"/>
  <path d="M855,196v28H827V196h28m1-1H826v30h30V195Z" transform="translate(-432 -195)"/>
  <rect class="cls-1" id="id-3" x="363.5" y="0.5" width="29" height="29"/>
  <path d="M824,196v28H796V196h28m1-1H795v30h30V195Z" transform="translate(-432 -195)"/>
  <rect class="cls-1" id="id-4" x="332.5" y="0.5" width="29" height="29"/>
  <path d="M793,196v28H765V196h28m1-1H764v30h30V195Z" transform="translate(-432 -195)"/>
  <rect class="cls-1" id="id-5" x="301.5" y="0.5" width="29" height="29"/>
  <path d="M762,196v28H734V196h28m1-1H733v30h30V195Z" transform="translate(-432 -195)"/>
  <rect class="cls-1" id="id-6" x="270.5" y="0.5" width="29" height="29"/>
  <path d="M731,196v28H703V196h28m1-1H702v30h30V195Z" transform="translate(-432 -195)"/>
  <rect class="cls-1" id="id-7" x="239.5" y="0.5" width="29" height="29"/>
  <path d="M700,196v28H672V196h28m1-1H671v30h30V195Z" transform="translate(-432 -195)"/>
  <rect class="cls-1" id="id-8" x="186.5" y="0.5" width="29" height="29"/>
  <path d="M647,196v28H619V196h28m1-1H618v30h30V195Z" transform="translate(-432 -195)"/>
  <rect class="cls-1" id="id-9" x="155.5" y="0.5" width="29" height="29"/>
  <path d="M616,196v28H588V196h28m1-1H587v30h30V195Z" transform="translate(-432 -195)"/>
  <rect class="cls-1" id="id-10" x="124.5" y="0.5" width="29" height="29"/>
  <path d="M585,196v28H557V196h28m1-1H556v30h30V195Z" transform="translate(-432 -195)"/>
  <rect class="cls-1" id="id-11" x="93.5" y="0.5" width="29" height="29"/>
  <path d="M554,196v28H526V196h28m1-1H525v30h30V195Z" transform="translate(-432 -195)"/>
  <rect class="cls-1" id="id-12" x="62.5" y="0.5" width="29" height="29"/>
  <path d="M523,196v28H495V196h28m1-1H494v30h30V195Z" transform="translate(-432 -195)"/>
  <rect class="cls-1" id="id-13" x="31.5" y="0.5" width="29" height="29"/>
  <path d="M492,196v28H464V196h28m1-1H463v30h30V195Z" transform="translate(-432 -195)"/>
  <rect class="cls-1" id="id-14" x="0.5" y="0.5" width="29" height="29"/>
  <path d="M461,196v28H433V196h28m1-1H432v30h30V195Z" transform="translate(-432 -195)"/>
  <rect class="cls-1" id="id-15" x="425.5" y="87.5" width="29" height="29"/>
  <path d="M886,283v28H858V283h28m1-1H857v30h30V282Z" transform="translate(-432 -195)"/>
  <rect class="cls-1" id="id-16" x="394.5" y="87.5" width="29" height="29"/>
  <path d="M855,283v28H827V283h28m1-1H826v30h30V282Z" transform="translate(-432 -195)"/>
  <rect class="cls-1" id="id-17" x="363.5" y="87.5" width="29" height="29"/>
  <path d="M824,283v28H796V283h28m1-1H795v30h30V282Z" transform="translate(-432 -195)"/>
  <rect class="cls-1" id="id-18" x="332.5" y="87.5" width="29" height="29"/>
  <path d="M793,283v28H765V283h28m1-1H764v30h30V282Z" transform="translate(-432 -195)"/>
  <rect class="cls-1" id="id-19" x="301.5" y="87.5" width="29" height="29"/>
  <path d="M762,283v28H734V283h28m1-1H733v30h30V282Z" transform="translate(-432 -195)"/>
  <rect class="cls-1" id="id-20" x="270.5" y="87.5" width="29" height="29"/>
  <path d="M731,283v28H703V283h28m1-1H702v30h30V282Z" transform="translate(-432 -195)"/>
  <rect class="cls-1" id="id-21" x="239.5" y="87.5" width="29" height="29"/>
  <path d="M700,283v28H672V283h28m1-1H671v30h30V282Z" transform="translate(-432 -195)"/>
  <rect class="cls-1" id="id-22" x="186.5" y="87.5" width="29" height="29"/>
  <path d="M647,283v28H619V283h28m1-1H618v30h30V282Z" transform="translate(-432 -195)"/>
  <rect class="cls-1" id="id-23" x="155.5" y="87.5" width="29" height="29"/>
  <path d="M616,283v28H588V283h28m1-1H587v30h30V282Z" transform="translate(-432 -195)"/>
  <rect class="cls-1" id="id-24" x="124.5" y="87.5" width="29" height="29"/>
  <path d="M585,283v28H557V283h28m1-1H556v30h30V282Z" transform="translate(-432 -195)"/>
  <rect class="cls-1" id="id-25" x="93.5" y="87.5" width="29" height="29"/>
  <path d="M554,283v28H526V283h28m1-1H525v30h30V282Z" transform="translate(-432 -195)"/>
  <rect class="cls-1" id="id-26" x="62.5" y="87.5" width="29" height="29"/>
  <path d="M523,283v28H495V283h28m1-1H494v30h30V282Z" transform="translate(-432 -195)"/>
  <rect class="cls-1" id="id-27" x="31.5" y="87.5" width="29" height="29"/>
  <path d="M492,283v28H464V283h28m1-1H463v30h30V282Z" transform="translate(-432 -195)"/>
  <rect class="cls-1" id="id-28" x="0.5" y="87.5" width="29" height="29"/>
  <path d="M461,283v28H433V283h28m1-1H432v30h30V282Z" transform="translate(-432 -195)"/>
  <rect class="cls-1" id="id-29" x="425.5" y="185.5" width="29" height="29"/>
  <path d="M886,381v28H858V381h28m1-1H857v30h30V380Z" transform="translate(-432 -195)"/>
  <rect class="cls-1" id="id-30" x="394.5" y="185.5" width="29" height="29"/>
  <path d="M855,381v28H827V381h28m1-1H826v30h30V380Z" transform="translate(-432 -195)"/>
  <rect class="cls-1" id="id-31" x="363.5" y="185.5" width="29" height="29"/>
  <path d="M824,381v28H796V381h28m1-1H795v30h30V380Z" transform="translate(-432 -195)"/>
  <rect class="cls-1" id="id-32" x="332.5" y="185.5" width="29" height="29"/>
  <path d="M793,381v28H765V381h28m1-1H764v30h30V380Z" transform="translate(-432 -195)"/>
  <rect class="cls-1" id="id-33" x="301.5" y="185.5" width="29" height="29"/>
  <path d="M762,381v28H734V381h28m1-1H733v30h30V380Z" transform="translate(-432 -195)"/>
  <rect class="cls-1" id="id-34" x="270.5" y="185.5" width="29" height="29"/>
  <path d="M731,381v28H703V381h28m1-1H702v30h30V380Z" transform="translate(-432 -195)"/>
  <rect class="cls-1" id="id-35" x="239.5" y="185.5" width="29" height="29"/>
  <path d="M700,381v28H672V381h28m1-1H671v30h30V380Z" transform="translate(-432 -195)"/>
  <rect class="cls-1" id="id-36" x="186.5" y="185.5" width="29" height="29"/>
  <path d="M647,381v28H619V381h28m1-1H618v30h30V380Z" transform="translate(-432 -195)"/>
  <rect class="cls-1" id="id-37" x="155.5" y="185.5" width="29" height="29"/>
  <path d="M616,381v28H588V381h28m1-1H587v30h30V380Z" transform="translate(-432 -195)"/>
  <rect class="cls-1" id="id-38" x="124.5" y="185.5" width="29" height="29"/>
  <path d="M585,381v28H557V381h28m1-1H556v30h30V380Z" transform="translate(-432 -195)"/>
  <rect class="cls-1" id="id-39" x="93.5" y="185.5" width="29" height="29"/>
  <path d="M554,381v28H526V381h28m1-1H525v30h30V380Z" transform="translate(-432 -195)"/>
  <rect class="cls-1" id="id-40" x="62.5" y="185.5" width="29" height="29"/>
  <path d="M523,381v28H495V381h28m1-1H494v30h30V380Z" transform="translate(-432 -195)"/>
  <rect class="cls-1" id="id-41" x="31.5" y="185.5" width="29" height="29"/>
  <path d="M492,381v28H464V381h28m1-1H463v30h30V380Z" transform="translate(-432 -195)"/>
  <rect class="cls-1" id="id-42" x="0.5" y="185.5" width="29" height="29"/>
  <path d="M461,381v28H433V381h28m1-1H432v30h30V380Z" transform="translate(-432 -195)"/>
  <rect class="cls-1" id="id-43" x="425.5" y="272.5" width="29" height="29"/>
  <path d="M886,468v28H858V468h28m1-1H857v30h30V467Z" transform="translate(-432 -195)"/>
  <rect class="cls-1" id="id-44" x="394.5" y="272.5" width="29" height="29"/>
  <path d="M855,468v28H827V468h28m1-1H826v30h30V467Z" transform="translate(-432 -195)"/>
  <rect class="cls-1" id="id-45" x="363.5" y="272.5" width="29" height="29"/>
  <path d="M824,468v28H796V468h28m1-1H795v30h30V467Z" transform="translate(-432 -195)"/>
  <rect class="cls-1" id="id-46" x="332.5" y="272.5" width="29" height="29"/>
  <path d="M793,468v28H765V468h28m1-1H764v30h30V467Z" transform="translate(-432 -195)"/>
  <rect class="cls-1" id="id-47" x="301.5" y="272.5" width="29" height="29"/>
  <path d="M762,468v28H734V468h28m1-1H733v30h30V467Z" transform="translate(-432 -195)"/>
  <rect class="cls-1" id="id-48" x="270.5" y="272.5" width="29" height="29"/>
  <path d="M731,468v28H703V468h28m1-1H702v30h30V467Z" transform="translate(-432 -195)"/>
  <rect class="cls-1" id="id-49" x="239.5" y="272.5" width="29" height="29"/>
  <path d="M700,468v28H672V468h28m1-1H671v30h30V467Z" transform="translate(-432 -195)"/>
  <rect class="cls-1" id="id-50" x="186.5" y="272.5" width="29" height="29"/>
  <path d="M647,468v28H619V468h28m1-1H618v30h30V467Z" transform="translate(-432 -195)"/>
</svg>