<svg width="24" height="24" viewBox="0 0 24 24" fill="none" xmlns="http://www.w3.org/2000/svg">
<path fill-rule="evenodd" clip-rule="evenodd" d="M12.9158 10.3663C12.0178 9.61705 10.862 9.16626 9.60104 9.16626C6.74148 9.16626 4.42334 11.4844 4.42334 14.344C4.42334 17.2035 6.74148 19.5217 9.60104 19.5217C12.4606 19.5217 14.7787 17.2035 14.7787 14.344C14.7787 13.2871 14.4621 12.3042 13.9185 11.4849L15.1714 10.232L16.8405 11.9012C16.996 12.0567 17.2028 12.1296 17.4065 12.12C17.6107 12.1302 17.8183 12.0573 17.9743 11.9013L19.9012 9.97436C20.057 9.81856 20.1299 9.61128 20.12 9.40728C20.1298 9.20338 20.0569 8.99624 19.9012 8.84053L18.232 7.17139L19.1863 6.2171C19.4792 5.9242 19.4792 5.44933 19.1863 5.15644C18.8934 4.86354 18.4186 4.86354 18.1257 5.15644L12.9158 10.3663ZM16.232 9.17139L17.1714 8.23205L18.3468 9.40745L17.4074 10.3468L16.232 9.17139ZM5.92334 14.344C5.92334 12.3128 7.56991 10.6663 9.60104 10.6663C11.6322 10.6663 13.2787 12.3128 13.2787 14.344C13.2787 16.3751 11.6322 18.0217 9.60104 18.0217C7.56991 18.0217 5.92334 16.3751 5.92334 14.344Z" fill="black"/>
</svg>
