<svg width="24" height="24" viewBox="0 0 24 24" fill="none" xmlns="http://www.w3.org/2000/svg">
<path fill-rule="evenodd" clip-rule="evenodd" d="M12.0001 2.24634C11.7108 2.24634 11.428 2.27224 11.1536 2.32181C8.93405 2.72174 7.24999 4.66333 7.24999 6.998V8.24878H6.99796C5.47829 8.24878 4.24713 9.47994 4.24713 10.9996V19.0029C4.24713 20.5226 5.47829 21.7538 6.99796 21.7538H17.0021C18.5218 21.7538 19.753 20.5226 19.753 19.0029V10.9996C19.753 9.47994 18.5218 8.24878 17.0021 8.24878H16.7517V6.998C16.7517 4.66333 15.0677 2.72174 12.8481 2.32181C12.5737 2.27224 12.2909 2.24634 12.0017 2.24634H12.0009H12.0001ZM8.74999 6.998C8.74999 6.76458 8.77459 6.53689 8.82134 6.31739C8.83683 6.28132 8.84969 6.24355 8.85961 6.20427C9.18505 4.91587 10.2671 3.93479 11.6025 3.7706C11.7331 3.75462 11.866 3.74637 12.0009 3.74634C12.1357 3.74637 12.2686 3.75461 12.3992 3.77059C13.7346 3.93479 14.8167 4.91587 15.1421 6.20427C15.152 6.24355 15.1649 6.28132 15.1804 6.31739C15.2271 6.53689 15.2517 6.76458 15.2517 6.998V8.24878H8.74999V6.998ZM7.99999 9.74884L7.99055 9.74878H6.99796C6.30672 9.74878 5.74713 10.3084 5.74713 10.9996V19.0029C5.74713 19.6942 6.30672 20.2538 6.99796 20.2538H17.0021C17.6934 20.2538 18.253 19.6942 18.253 19.0029V10.9996C18.253 10.3084 17.6934 9.74878 17.0021 9.74878H16.0112L16.0017 9.74884L15.9923 9.74878H8.00942L7.99999 9.74884ZM11.997 13.7512C11.3106 13.7512 10.7444 14.3101 10.7498 15.0055L10.7498 15.0014H11.4382L10.7498 15.0055C10.752 15.693 11.312 16.2516 12 16.2516C12.6893 16.2516 13.2502 15.6908 13.2502 15.0014C13.2502 14.3092 12.6864 13.7512 11.997 13.7512Z" fill="black"/>
</svg>
