<svg width="24" height="24" viewBox="0 0 24 24" fill="none" xmlns="http://www.w3.org/2000/svg">
<path fill-rule="evenodd" clip-rule="evenodd" d="M7.40529 5.83692C7.92446 3.78154 9.77323 2.24634 12.0001 2.24634C14.6242 2.24634 16.7517 4.37387 16.7517 6.998V8.24878H17.0021C18.5218 8.24878 19.753 9.47994 19.753 10.9996V19.0029C19.753 20.5226 18.5218 21.7538 17.0021 21.7538H6.99796C5.47829 21.7538 4.24713 20.5226 4.24713 19.0029V10.9996C4.24713 9.47994 5.47829 8.24878 6.99796 8.24878H15.2517V6.998C15.2517 5.2023 13.7958 3.74634 12.0001 3.74634C10.4853 3.74634 9.21679 4.79021 8.85961 6.20427C8.75816 6.60587 8.35037 6.8492 7.94877 6.74776C7.54717 6.64632 7.30384 6.23852 7.40529 5.83692ZM16.0017 9.74884L15.9923 9.74878H6.99796C6.30672 9.74878 5.74713 10.3084 5.74713 10.9996V19.0029C5.74713 19.6942 6.30672 20.2538 6.99796 20.2538H17.0021C17.6934 20.2538 18.253 19.6942 18.253 19.0029V10.9996C18.253 10.3084 17.6934 9.74878 17.0021 9.74878H16.0112L16.0017 9.74884ZM11.997 13.7512C11.3106 13.7512 10.7444 14.3101 10.7498 15.0055L10.7498 15.0014H11.4382L10.7498 15.0055C10.752 15.693 11.312 16.2516 12 16.2516C12.6893 16.2516 13.2502 15.6908 13.2502 15.0014C13.2502 14.3092 12.6864 13.7512 11.997 13.7512Z" fill="black"/>
</svg>
