<svg xmlns="http://www.w3.org/2000/svg" width="158" height="21" viewBox="0 0 158 21" fill="none" class="mdl-js">
  <path d="M15.9248 16.3302H4.05815V4.3608H15.9248V16.3302ZM20 0.308594C12.1895 0.308594 7.81048 0.308594 0 0.308594V20.3086H20V0.308594Z" fill="#A5B862"/>
  <path d="M14 6.30664H6.00002V14.3066H14V6.30664Z" fill="#A5B862"/>
  <path d="M143.836 18.9927V5.44542L149.729 12.4435L155.635 5.44542V18.9927H158V1.6387H155.877L149.729 8.93259L143.591 1.6387H141.466V18.9927H143.836ZM121.208 13.7507C121.666 14.8511 122.344 15.8508 123.202 16.6913C124.043 17.5214 125.043 18.1801 126.145 18.6293C127.247 19.0785 128.428 19.3093 129.622 19.3083C130.825 19.3179 132.019 19.0912 133.132 18.6418C134.244 18.1923 135.254 17.5291 136.101 16.6913C136.941 15.8663 137.608 14.8872 138.062 13.8099C138.516 12.7327 138.749 11.5783 138.748 10.4128C138.759 9.21486 138.53 8.02645 138.074 6.91501C137.614 5.81606 136.934 4.81816 136.075 3.97976C135.242 3.14405 134.244 2.4836 133.141 2.03878C132.026 1.58713 130.83 1.35731 129.623 1.36272C128.434 1.358 127.255 1.58605 126.157 2.03349C123.93 2.95054 122.159 4.6873 121.226 6.87011C120.769 7.93838 120.533 9.08521 120.532 10.2437C120.523 11.4446 120.752 12.6358 121.208 13.7507ZM123.617 7.78385C123.932 6.98787 124.411 6.26381 125.023 5.65667C125.636 5.04302 126.363 4.55 127.165 4.20423C127.94 3.86845 128.777 3.69487 129.625 3.69457C130.488 3.69145 131.342 3.86402 132.133 4.20132C132.925 4.53863 133.636 5.0333 134.222 5.65402C134.838 6.27926 135.327 7.01373 135.663 7.81818C136.156 9.02127 136.284 10.3379 136.034 11.6108C135.783 12.8836 135.163 14.0588 134.249 14.9959C133.656 15.6142 132.939 16.106 132.144 16.4404C131.347 16.7658 130.492 16.9323 129.629 16.9303C128.766 16.9282 127.911 16.7577 127.116 16.4285C126.324 16.099 125.611 15.611 125.023 14.9959C124.417 14.3814 123.941 13.6565 123.62 12.8621C123.294 12.057 123.128 11.1983 123.131 10.3322C123.127 9.45859 123.293 8.59218 123.617 7.77856V7.78385ZM115.049 16.4245C114.081 16.7551 113.063 16.9268 112.037 16.9329C110.099 16.9329 108.49 16.3026 107.211 15.0421C105.931 13.7815 105.291 12.2124 105.29 10.3348C105.29 8.4317 105.94 6.84987 107.24 5.58932C108.54 4.32878 110.188 3.69809 112.184 3.69721C113.124 3.70473 114.057 3.84936 114.954 4.12634C116.015 4.45839 117.037 4.90105 118.002 5.44674V2.75707C117.054 2.3063 116.06 1.95233 115.037 1.70075C114.103 1.478 113.144 1.36541 112.183 1.36536C110.899 1.34883 109.624 1.56967 108.424 2.01631C107.278 2.46091 106.238 3.12893 105.364 3.97976C104.513 4.79517 103.841 5.77248 103.39 6.85164C102.929 7.92566 102.692 9.07888 102.693 10.2437C102.679 11.7319 103.042 13.2002 103.748 14.5179C104.444 15.8212 105.464 16.9319 106.713 17.7476C107.488 18.2545 108.335 18.6461 109.227 18.9095C110.133 19.1745 111.075 19.3079 112.021 19.3057C113.062 19.3018 114.098 19.1619 115.102 18.8897C116.165 18.6017 117.19 18.1959 118.159 17.6802V14.8731C117.197 15.5236 116.152 16.0453 115.049 16.4245ZM95.8027 18.9927V10.4326L102.647 1.6387H99.7086L94.6099 8.22352L89.6311 1.6387H86.7454L93.3335 10.3098V18.9927H95.8027ZM78.4968 19.1168L86.1591 1.6387H83.6455L78.2205 14.0148L72.898 1.63605H70.3507L77.8661 19.1142L78.4968 19.1168ZM61.9336 19.1168L69.5986 1.6387H67.0876L61.6573 14.0148L56.3389 1.63605H53.7875L61.3029 19.1142L61.9336 19.1168ZM46.1643 11.6487L48.7871 5.39655L51.4827 11.6487L52.4815 13.8814L54.6784 18.9927H57.2042L49.7117 1.6387H47.9286L40.5345 18.9927H43.0374L45.2073 13.8814L46.1643 11.6487ZM32.1592 18.9003C32.9583 19.1746 33.8006 19.3087 34.6473 19.2964C36.1209 19.2964 37.3289 18.8642 38.2715 17.9998C39.2141 17.1353 39.6858 16.0421 39.6867 14.7199C39.6867 13.5527 39.4347 12.5747 38.9306 11.786C38.4265 10.9973 37.3568 10.0853 35.7215 9.05009L35.3562 8.82563C33.3453 7.55276 32.3403 6.48632 32.3412 5.6263C32.3351 5.34071 32.3979 5.05777 32.5244 4.80037C32.6508 4.54298 32.8374 4.31839 33.069 4.14481C33.5533 3.75926 34.1773 3.5669 34.9411 3.56778C35.5981 3.57239 36.2467 3.71326 36.8442 3.98109C37.5934 4.33248 38.2907 4.78154 38.9171 5.31603V2.4996C38.316 2.11836 37.6661 1.81646 36.9843 1.60172C36.3548 1.40691 35.6984 1.30805 35.0381 1.3086C33.5582 1.3086 32.3479 1.74082 31.4071 2.60524C30.4664 3.46966 29.9973 4.5757 30 5.92339C30 6.882 30.244 7.71122 30.7373 8.40443C31.2306 9.09764 32.4382 10.08 34.3683 11.3436C35.6118 12.1447 36.3981 12.7609 36.7269 13.1922C37.0579 13.6177 37.2326 14.1401 37.2229 14.675C37.2229 15.3599 36.9785 15.903 36.4897 16.3044C36.0009 16.7058 35.3337 16.9069 34.4882 16.9078C33.6974 16.9097 32.9205 16.7036 32.2387 16.311C31.5352 15.9122 30.797 15.2635 30.0243 14.3647V17.6393C30.6521 18.1829 31.3755 18.6101 32.1592 18.9003Z" fill="#3A6771"/>
</svg>