<svg width="752" height="752" viewBox="0 0 752 752" fill="none" xmlns="http://www.w3.org/2000/svg">
<path d="M176.8 156.4C169.6 159.4 164 163.8 160.1 169.6C153.5 179.6 154 163.7 154.2 377.5L154.5 571.5L157.2 577.2C160.6 584.5 167.5 591.4 174.8 594.8L180.5 597.5H272.5H364.5L370.2 594.7C377.3 591.2 384.2 584.3 387.8 577.1L390.5 571.5V376V180.5L387.7 174.8C384.1 167.5 377.6 160.9 370.2 157.3L364.5 154.5L273.5 154.3L182.5 154L176.8 156.4ZM213 174.2C213 178.1 213.5 179.9 215.2 181.7L217.3 184H272.4H327.4L329.7 181.8C331.6 180.1 332 178.6 332 174.2V168.8L345.8 169.2C358.7 169.5 359.8 169.7 364.3 172.3C370.1 175.8 373.6 180.9 375 187.9C376.4 195.3 376.4 556.7 375 564.1C373.6 571.1 370.1 576.2 364.3 579.7L359.5 582.5H272.5C189.5 582.5 185.3 582.4 182 580.6C177.1 578 174.1 575.1 171.7 570.5L169.5 566.5L169.2 378.1C169.1 253.9 169.3 188.5 170 186C171.2 181.5 174.6 176.3 178.1 173.8C183 170.2 188.1 169.1 200.8 169H213V174.2Z" fill="white"/>
<path d="M430.6 188.2C414 200.5 411.1 203.7 412.5 207.9C413.2 210.2 435.4 239.8 437.8 241.7C440 243.5 445.1 243.3 447.8 241.4C449.4 240.3 450 238.9 450 235.9C450 232.6 449 230.6 444.5 224.5C441.5 220.4 439 216.8 439 216.6C439 215.9 451.3 218.9 459 221.6C489.3 232.1 517.1 255.1 533.9 283.7C538 290.6 547.3 312 546.6 312.8C546.4 313 541.5 310.4 535.8 307.1C530.1 303.7 524.6 301 523.7 301C518.1 301 514.2 306.5 516.1 311.8C516.9 314.1 520.7 316.8 535.2 325.3C554.2 336.4 558.1 337.8 561.2 334.2C562.1 333.3 567.1 325.2 572.4 316.2C580 303.3 582 299.2 582 296.1C582 291.5 579.6 289 575.3 289C570.3 289 569.3 289.8 565.3 296.6C563.3 300.1 561.3 303 561 303C560.7 303 559.4 300.2 558.1 296.7C544.8 261.5 514.5 229.2 479.5 213C471 209 456.1 204 446.8 202L441.1 200.7L448.3 195.3C452.3 192.3 456.1 188.8 456.8 187.4C458.5 184.2 457.5 179.5 454.7 177.5C450.3 174.4 447.8 175.5 430.6 188.2Z" fill="white"/>
<path d="M415.3 362.5C413.5 363.8 413 365.1 413 368.4C413 376.6 407.5 376 488.6 376C534 376 562.2 376.4 565 377.1C571.4 378.5 576.4 382.2 579.7 387.7C582.3 392.2 582.5 393.3 582.8 406.2L583.2 420H577.8C573.4 420 571.9 420.4 570.2 422.3L568 424.6V479.6V534.7L570.3 536.8C572.1 538.5 573.9 539 577.9 539H583.2L582.8 552.7C582.4 570.1 580.1 575.2 570.5 580.3C566.5 582.5 566.1 582.5 483.7 583C403.1 583.5 400.8 583.6 399.4 585.4C397.5 588.1 397.6 593.3 399.8 595.9L401.5 598.1L486.5 597.8L571.5 597.5L577.2 594.8C584.5 591.4 591.4 584.5 594.8 577.2L597.5 571.5V479.5V387.5L594.7 381.8C591.1 374.4 584.5 367.9 577.2 364.3L571.5 361.5L494.5 361.2C425.7 361 417.3 361.1 415.3 362.5Z" fill="white"/>
</svg>
