<svg width="24" height="24" viewBox="0 0 24 24" fill="none" xmlns="http://www.w3.org/2000/svg">
<path fill-rule="evenodd" clip-rule="evenodd" d="M2.75 11.5C2.75 6.66751 6.66751 2.75 11.5 2.75C16.3325 2.75 20.25 6.66751 20.25 11.5C20.25 16.3325 16.3325 20.25 11.5 20.25C6.66751 20.25 2.75 16.3325 2.75 11.5ZM11.5 1.25C5.83908 1.25 1.25 5.83908 1.25 11.5C1.25 17.1609 5.83908 21.75 11.5 21.75C17.1609 21.75 21.75 17.1609 21.75 11.5C21.75 5.83908 17.1609 1.25 11.5 1.25ZM21.5017 20.9117C21.6581 21.2545 21.7632 21.8435 21.3078 22.2884C21.0973 22.4969 20.8267 22.6218 20.5295 22.6386C20.2436 22.6547 19.9857 22.5686 19.7781 22.4511C19.3721 22.2215 19.048 21.8147 18.8252 21.3581L18.8252 21.358C18.7095 21.1209 18.6124 20.8611 18.5894 20.6055C18.5675 20.3633 18.6056 19.9022 19.0431 19.6445C19.4092 19.4288 19.7946 19.5279 19.9847 19.5945C20.2152 19.6752 20.4519 19.8122 20.6834 19.9758L20.6837 19.976C21.0358 20.2252 21.3364 20.5494 21.5017 20.9117ZM20.1421 21.5469L20.1414 21.5448C20.1419 21.5462 20.1421 21.5469 20.1421 21.5469Z" fill="#66768E"/>
</svg>
