<svg width="140" height="200" viewBox="0 0 140 200" fill="none" xmlns="http://www.w3.org/2000/svg">
<g clip-path="url(#clip0_124_229)">
<path d="M61.8704 39.8736H43.4905V199.657H61.8704V39.8736Z" fill="#DADFE3"/>
<path d="M43.4904 39.8736H10V199.657H43.4904V39.8736Z" fill="#F0F5F9"/>
<path d="M43.4904 36H10V39.8735H43.4904V36Z" fill="#DFE4E8"/>
<path d="M61.8704 36H43.4905V39.8735H61.8704V36Z" fill="#B8C0C9"/>
<path d="M32.7098 56.2481H20.8689V74.5594H32.7098V56.2481Z" fill="#02629E"/>
<path d="M24.05 56.2481H20.8689V74.5594H24.05V56.2481Z" fill="#0270AB"/>
<path d="M32.7098 74.5594H20.8689V77.3765H32.7098V74.5594Z" fill="#B8C0C9"/>
<path d="M32.7098 90.934H20.8689V109.245H32.7098V90.934Z" fill="#02629E"/>
<path d="M24.05 90.934H20.8689V109.245H24.05V90.934Z" fill="#0270AB"/>
<path d="M32.7098 109.245H20.8689V112.062H32.7098V109.245Z" fill="#B8C0C9"/>
<path d="M32.7098 125.62H20.8689V143.931H32.7098V125.62Z" fill="#02629E"/>
<path d="M24.05 125.62H20.8689V143.931H24.05V125.62Z" fill="#0270AB"/>
<path d="M32.7098 143.931H20.8689V146.748H32.7098V143.931Z" fill="#B8C0C9"/>
<path d="M32.7098 160.306H20.8689V178.617H32.7098V160.306Z" fill="#02629E"/>
<path d="M24.05 160.306H20.8689V178.617H24.05V160.306Z" fill="#0270AB"/>
<path d="M32.7098 178.529H20.8689V181.346H32.7098V178.529Z" fill="#B8C0C9"/>
<path d="M43.4904 195.696H10V199.657H43.4904V195.696Z" fill="#D0DAE4"/>
<path d="M130 39.8736H111.62V199.657H130V39.8736Z" fill="#DADFE3"/>
<path d="M111.62 39.8736H78.1296V199.657H111.62V39.8736Z" fill="#F0F5F9"/>
<path d="M111.62 36H78.1296V39.8735H111.62V36Z" fill="#DFE4E8"/>
<path d="M130 36H111.62V39.8735H130V36Z" fill="#B8C0C9"/>
<path d="M100.839 56.2481H88.9985V74.5594H100.839V56.2481Z" fill="#02629E"/>
<path d="M92.1797 56.2481H88.9985V74.5594H92.1797V56.2481Z" fill="#0270AB"/>
<path d="M100.839 74.5594H88.9985V77.3765H100.839V74.5594Z" fill="#B8C0C9"/>
<path d="M100.839 90.934H88.9985V109.245H100.839V90.934Z" fill="#02629E"/>
<path d="M92.1797 90.934H88.9985V109.245H92.1797V90.934Z" fill="#0270AB"/>
<path d="M100.839 109.245H88.9985V112.062H100.839V109.245Z" fill="#B8C0C9"/>
<path d="M100.839 125.62H88.9985V143.931H100.839V125.62Z" fill="#02629E"/>
<path d="M92.1797 125.62H88.9985V143.931H92.1797V125.62Z" fill="#0270AB"/>
<path d="M100.839 143.931H88.9985V146.748H100.839V143.931Z" fill="#B8C0C9"/>
<path d="M100.839 160.306H88.9985V178.617H100.839V160.306Z" fill="#02629E"/>
<path d="M92.1797 160.306H88.9985V178.617H92.1797V160.306Z" fill="#0270AB"/>
<path d="M100.839 178.529H88.9985V181.346H100.839V178.529Z" fill="#B8C0C9"/>
<path d="M111.62 195.696H78.1296V199.657H111.62V195.696Z" fill="#D0DAE4"/>
<path d="M130 195.696H111.62V199.657H130V195.696Z" fill="#B8C0C9"/>
<path d="M78.1297 43.7471H43.4905V199.745H78.1297V43.7471Z" fill="#02629E"/>
<path d="M52.6805 43.7471H43.4905V200.01H52.6805V43.7471Z" fill="#0270AB"/>
<path d="M65.4051 43.7471H60.8101V200.01H65.4051V43.7471Z" fill="#0270AB"/>
<path d="M78.1297 39.8736H43.4905V43.6591H78.1297V39.8736Z" fill="#00579C"/>
<path d="M78.1297 65.4038H43.4905V67.5166H78.1297V65.4038Z" fill="#004679"/>
<path d="M78.1297 102.291H43.4905V104.403H78.1297V102.291Z" fill="#004679"/>
<path d="M78.1297 139.089H43.4905V141.202H78.1297V139.089Z" fill="#004679"/>
<path d="M78.1297 175.888H43.4905V178.001H78.1297V175.888Z" fill="#004679"/>
<path opacity="0.1" d="M78.1297 131.166L43.4905 165.764V152.911L78.1297 118.313V131.166Z" fill="#F0F5F9"/>
<path opacity="0.1" d="M78.1297 100.442L43.4905 134.952V43.7471H78.1297V100.442Z" fill="#F0F5F9"/>
</g>
<defs>
<clipPath id="clip0_124_229">
<rect width="140" height="200" fill="white"/>
</clipPath>
</defs>
</svg>
