<svg width="24" height="24" viewBox="0 0 24 24" fill="none" xmlns="http://www.w3.org/2000/svg">
<path fill-rule="evenodd" clip-rule="evenodd" d="M12 2.75C6.89137 2.75 2.75 6.89137 2.75 12C2.75 14.6406 3.8565 17.0228 5.63115 18.7082C6.02728 18.0732 6.69023 17.5693 7.41749 17.2056C8.62702 16.6009 10.2469 16.25 12 16.25C13.7541 16.25 15.3741 16.6042 16.5832 17.2104C17.3084 17.5739 17.9707 18.0772 18.3672 18.7099C20.1428 17.0244 21.25 14.6415 21.25 12C21.25 6.89137 17.1086 2.75 12 2.75ZM17.1765 19.6671C17.0311 19.3256 16.6545 18.924 15.911 18.5513C14.9515 18.0703 13.5714 17.75 12 17.75C10.4275 17.75 9.04739 18.0677 8.08832 18.5473C7.34403 18.9194 6.96709 19.3217 6.82239 19.6663C8.29985 20.6661 10.0817 21.25 12 21.25C13.9178 21.25 15.6992 20.6664 17.1765 19.6671ZM1.25 12C1.25 6.06294 6.06294 1.25 12 1.25C17.9371 1.25 22.75 6.06294 22.75 12C22.75 17.9371 17.9371 22.75 12 22.75C6.06294 22.75 1.25 17.9371 1.25 12ZM12 8.75C10.7514 8.75 9.75 9.75142 9.75 11C9.75 12.205 10.6799 13.1766 11.8555 13.2478C11.9482 13.239 12.0436 13.2391 12.1361 13.2481C13.3023 13.1863 14.2399 12.2115 14.25 10.9974C14.2486 9.75973 13.2458 8.75 12 8.75ZM8.25 11C8.25 8.923 9.92299 7.25 12 7.25C14.0789 7.25 15.75 8.93652 15.75 11V11.0054H15.75C15.7355 13.0274 14.144 14.6912 12.1264 14.7497C12.0822 14.751 12.0379 14.7483 11.9942 14.7418C11.9487 14.7486 11.9026 14.7512 11.8566 14.7495C9.84892 14.6768 8.25 13.0319 8.25 11Z" fill="black"/>
</svg>
