<svg width="140" height="200" viewBox="0 0 140 200" fill="none" xmlns="http://www.w3.org/2000/svg">
<path d="M61.4621 82.047H10V199.54H61.4621V82.047Z" fill="#F0F5F9"/>
<path d="M130 82.047H61.4622V199.54H130V82.047Z" fill="#DADFE3"/>
<path d="M61.4622 108.287H19.0862V123.17H61.4622V108.287Z" fill="#02629E"/>
<path d="M30.2088 108.287H29.4255V123.17H30.2088V108.287Z" fill="#004679"/>
<path d="M40.7049 108.287H39.9216V123.17H40.7049V108.287Z" fill="#004679"/>
<path d="M51.1226 108.287H50.3394V123.17H51.1226V108.287Z" fill="#004679"/>
<path opacity="0.1" d="M35.7702 123.17H23.7859L32.0888 108.287H44.0731L35.7702 123.17Z" fill="#F0F5F9"/>
<path opacity="0.1" d="M48.3813 123.17H44.3865L52.6893 108.287H56.6841L48.3813 123.17Z" fill="#F0F5F9"/>
<path d="M119.034 128.261H98.5901L90.2872 123.17H61.4622V108.287H119.034V128.261Z" fill="#04486B"/>
<path d="M69.1385 108.287H68.3552V123.17H69.1385V108.287Z" fill="#05568D"/>
<path d="M79.5562 108.287H78.7729V123.17H79.5562V108.287Z" fill="#05568D"/>
<path d="M89.974 108.287H89.1907V123.17H89.974V108.287Z" fill="#05568D"/>
<path d="M100.47 108.287H99.6868V128.261H100.47V108.287Z" fill="#05568D"/>
<path d="M110.888 108.287H110.104V128.261H110.888V108.287Z" fill="#05568D"/>
<path opacity="0.1" d="M85.7441 123.17H73.8381L82.141 108.287H94.047L85.7441 123.17Z" fill="#F0F5F9"/>
<path opacity="0.1" d="M119.034 128.261H106.11L117.232 108.287H119.034V128.261Z" fill="#F0F5F9"/>
<path opacity="0.1" d="M96.3185 126.851L93.342 125.05L102.742 108.287H106.658L96.3185 126.851Z" fill="#F0F5F9"/>
<path d="M61.4621 77.3473H10V82.047H61.4621V77.3473Z" fill="#DFE4E8"/>
<path d="M130 77.3473H61.4622V82.047H130V77.3473Z" fill="#B8C0C9"/>
<path d="M61.4621 103.587H10V108.287H61.4621V103.587Z" fill="#DFE4E8"/>
<path d="M130 103.587H61.4622V108.287H130V103.587Z" fill="#B8C0C9"/>
<path d="M61.4621 196.016H10V199.54H61.4621V196.016Z" fill="#DFE4E8"/>
<path d="M130 196.016H61.4622V199.54H130V196.016Z" fill="#B8C0C9"/>
<path d="M61.4622 147.452H19.0862V162.334H61.4622V147.452Z" fill="#02629E"/>
<path d="M30.2088 147.452H29.4255V162.334H30.2088V147.452Z" fill="#004679"/>
<path d="M40.7049 147.452H39.9216V162.334H40.7049V147.452Z" fill="#004679"/>
<path d="M51.1226 147.452H50.3394V162.334H51.1226V147.452Z" fill="#004679"/>
<path opacity="0.1" d="M35.7702 162.334H23.7859L32.0888 147.452H44.0731L35.7702 162.334Z" fill="#F0F5F9"/>
<path opacity="0.1" d="M48.3813 162.334H44.3865L52.6893 147.452H56.6841L48.3813 162.334Z" fill="#F0F5F9"/>
<path d="M119.034 167.426H98.5901L90.2872 162.334H61.4622V147.452H119.034V167.426Z" fill="#04486B"/>
<path d="M69.1385 147.452H68.3552V162.334H69.1385V147.452Z" fill="#05568D"/>
<path d="M79.5562 147.452H78.7729V162.334H79.5562V147.452Z" fill="#05568D"/>
<path d="M89.974 147.452H89.1907V162.334H89.974V147.452Z" fill="#05568D"/>
<path d="M100.47 147.452H99.6868V167.426H100.47V147.452Z" fill="#05568D"/>
<path d="M110.888 147.452H110.104V167.426H110.888V147.452Z" fill="#05568D"/>
<path opacity="0.1" d="M85.7441 162.334H73.8381L82.141 147.452H94.047L85.7441 162.334Z" fill="#F0F5F9"/>
<path opacity="0.1" d="M119.034 167.426H106.11L117.232 147.452H119.034V167.426Z" fill="#F0F5F9"/>
<path opacity="0.1" d="M96.3185 166.016L93.342 164.214L102.742 147.452H106.658L96.3185 166.016Z" fill="#F0F5F9"/>
<path d="M61.4621 142.752H10V147.452H61.4621V142.752Z" fill="#DFE4E8"/>
<path d="M130 142.752H61.4622V147.452H130V142.752Z" fill="#B8C0C9"/>
<path d="M24.256 185.285H17.363V196.016H24.256V185.285Z" fill="#02629E"/>
<path d="M19.2429 185.285H17.363V196.016H19.2429V185.285Z" fill="#0270AB"/>
<path d="M32.0104 185.285H25.1174V196.016H32.0104V185.285Z" fill="#02629E"/>
<path d="M26.9973 185.285H25.1174V196.016H26.9973V185.285Z" fill="#0270AB"/>
<path d="M46.3446 185.285H39.4517V196.016H46.3446V185.285Z" fill="#02629E"/>
<path d="M41.3316 185.285H39.4517V196.016H41.3316V185.285Z" fill="#0270AB"/>
<path d="M54.0992 185.285H47.2063V196.016H54.0992V185.285Z" fill="#02629E"/>
<path d="M49.0862 185.285H47.2063V196.016H49.0862V185.285Z" fill="#0270AB"/>
<path d="M94.3604 185.285H71.175V196.016H94.3604V185.285Z" fill="#02629E"/>
<path d="M77.4414 185.285H71.175V196.016H77.4414V185.285Z" fill="#0270AB"/>
<path d="M120.209 185.285H97.0234V196.016H120.209V185.285Z" fill="#02629E"/>
<path d="M103.29 185.285H97.0234V196.016H103.29V185.285Z" fill="#0270AB"/>
<path d="M111.514 61.6815H81.8276V77.3473H111.514V61.6815Z" fill="#F0F5F9"/>
<path d="M124.204 61.6815H111.514V77.3473H124.204V61.6815Z" fill="#DADFE3"/>
<path d="M111.514 58H79.1646V61.6815H111.514V58Z" fill="#DFE4E8"/>
<path d="M126.867 58H111.514V61.6815H126.867V58Z" fill="#B8C0C9"/>
<path d="M95.3003 67.1645H89.0339V77.4256H95.3003V67.1645Z" fill="#004679"/>
<path d="M11.4883 71.6292H10V77.3473H11.4883V71.6292Z" fill="#F0F5F9"/>
<path d="M61.5405 71.6292H60.0522V77.3473H61.5405V71.6292Z" fill="#F0F5F9"/>
<path d="M50.7312 71.6292H49.2429V77.3473H50.7312V71.6292Z" fill="#F0F5F9"/>
<path d="M35.6919 71.6292H34.2036V77.3473H35.6919V71.6292Z" fill="#F0F5F9"/>
<path d="M20.5744 71.6292H19.0862V77.3473H20.5744V71.6292Z" fill="#F0F5F9"/>
<path d="M61.4621 71.6292H10V72.8042H61.4621V71.6292Z" fill="#F0F5F9"/>
<path d="M61.4621 74.5274H10V75.7024H61.4621V74.5274Z" fill="#F0F5F9"/>
<path d="M62.9504 71.6292H61.4622V77.3473H62.9504V71.6292Z" fill="#DADFE3"/>
<path d="M113.003 71.6292H111.514V77.3473H113.003V71.6292Z" fill="#DADFE3"/>
<path d="M102.193 71.6292H100.705V77.3473H102.193V71.6292Z" fill="#DADFE3"/>
<path d="M87.0757 71.6292H85.5874V77.3473H87.0757V71.6292Z" fill="#DADFE3"/>
<path d="M72.0366 71.6292H70.5483V77.3473H72.0366V71.6292Z" fill="#DADFE3"/>
<path d="M112.924 71.6292H61.4622V72.8042H112.924V71.6292Z" fill="#DADFE3"/>
<path d="M112.924 74.5274H61.4622V75.7024H112.924V74.5274Z" fill="#DADFE3"/>
</svg>
